HIERARCHY
ROOT Hips
{
	OFFSET 0.000000 100.481300 0.000000
	CHANNELS 6 Xposition Yposition Zposition Xrotation Yrotation Zrotation 
	JOINT Spine
	{
		OFFSET -0.279200 12.230698 -2.892100
		CHANNELS 3 Xrotation Yrotation Zrotation
		JOINT Spine1
		{
			OFFSET -0.232667 10.192268 -1.242267
			CHANNELS 3 Xrotation Yrotation Zrotation
			JOINT Spine1_split
			{
				OFFSET -0.232667 10.192268 -1.242267
				CHANNELS 3 Xrotation Yrotation Zrotation
				JOINT Spine2
				{
					OFFSET -0.232667 10.192268 -1.242267
					CHANNELS 3 Xrotation Yrotation Zrotation
					JOINT Neck
					{
						OFFSET -0.418800 17.814194 8.416900
						CHANNELS 3 Xrotation Yrotation Zrotation
						JOINT Head
						{
							OFFSET 0.000000 7.031097 3.806800
							CHANNELS 3 Xrotation Yrotation Zrotation
							JOINT HeadTop_End
							{
								OFFSET 0.000000 24.646606 12.978600
								CHANNELS 3 Xrotation Yrotation Zrotation
								End Site
								{
									OFFSET 0.000000 0.000000 0.000000
								}
							}
						}
					}
					JOINT LeftShoulder
					{
						OFFSET 8.476499 7.247704 -3.868750
						CHANNELS 3 Xrotation Yrotation Zrotation
						JOINT LeftShoulder_split
						{
							OFFSET 8.476499 7.247704 -3.868750
							CHANNELS 3 Xrotation Yrotation Zrotation
							JOINT LeftArm
							{
								OFFSET 9.308998 -2.777710 0.208600
								CHANNELS 3 Xrotation Yrotation Zrotation
								JOINT LeftForeArm
								{
									OFFSET 29.972298 0.000000 0.000000
									CHANNELS 3 Xrotation Yrotation Zrotation
									JOINT LeftHand
									{
										OFFSET 26.026505 0.000000 0.000000
										CHANNELS 3 Xrotation Yrotation Zrotation
										JOINT LeftHandThumb1
										{
											OFFSET 12.240501 -7.147949 9.207150
											CHANNELS 3 Xrotation Yrotation Zrotation
											JOINT LeftHandThumb2
											{
												OFFSET 4.138618 -2.389435 2.389433
												CHANNELS 3 Xrotation Yrotation Zrotation
												JOINT LeftHandThumb3
												{
													OFFSET 2.726913 -1.574387 1.574386
													CHANNELS 3 Xrotation Yrotation Zrotation
													JOINT LeftHandThumb4
													{
														OFFSET 3.941010 -2.275345 2.275342
														CHANNELS 3 Xrotation Yrotation Zrotation
														End Site
														{
															OFFSET 0.000000 0.000000 0.000000
														}
													}
												}
											}
										}
										JOINT LeftHandIndex1
										{
											OFFSET 24.424698 -1.985611 5.953459
											CHANNELS 3 Xrotation Yrotation Zrotation
											JOINT LeftHandIndex2
											{
												OFFSET 6.426697 0.000000 0.000000
												CHANNELS 3 Xrotation Yrotation Zrotation
												JOINT LeftHandIndex3
												{
													OFFSET 5.337898 0.000000 0.000000
													CHANNELS 3 Xrotation Yrotation Zrotation
													JOINT LeftHandIndex4
													{
														OFFSET 4.409401 0.000000 0.000000
														CHANNELS 3 Xrotation Yrotation Zrotation
														End Site
														{
															OFFSET 0.000000 0.000000 0.000000
														}
													}
												}
											}
										}
										JOINT LeftHandMiddle1
										{
											OFFSET 23.810104 0.000000 0.000000
											CHANNELS 3 Xrotation Yrotation Zrotation
											JOINT LeftHandMiddle2
											{
												OFFSET 7.176498 0.000000 0.000000
												CHANNELS 3 Xrotation Yrotation Zrotation
												JOINT LeftHandMiddle3
												{
													OFFSET 6.774902 0.000000 0.000000
													CHANNELS 3 Xrotation Yrotation Zrotation
													JOINT LeftHandMiddle4
													{
														OFFSET 5.403328 0.000000 0.000000
														CHANNELS 3 Xrotation Yrotation Zrotation
														End Site
														{
															OFFSET 0.000000 0.000000 0.000000
														}
													}
												}
											}
										}
										JOINT LeftHandRing1
										{
											OFFSET 22.908401 -0.839279 -6.020567
											CHANNELS 3 Xrotation Yrotation Zrotation
											JOINT LeftHandRing2
											{
												OFFSET 6.337502 0.000000 0.000000
												CHANNELS 3 Xrotation Yrotation Zrotation
												JOINT LeftHandRing3
												{
													OFFSET 5.779297 0.000000 0.000000
													CHANNELS 3 Xrotation Yrotation Zrotation
													JOINT LeftHandRing4
													{
														OFFSET 4.965698 0.000000 0.000000
														CHANNELS 3 Xrotation Yrotation Zrotation
														End Site
														{
															OFFSET 0.000000 0.000000 0.000000
														}
													}
												}
											}
										}
										JOINT LeftHandPinky1
										{
											OFFSET 20.037003 -1.530319 -10.950146
											CHANNELS 3 Xrotation Yrotation Zrotation
											JOINT LeftHandPinky2
											{
												OFFSET 5.254700 0.000000 0.000000
												CHANNELS 3 Xrotation Yrotation Zrotation
												JOINT LeftHandPinky3
												{
													OFFSET 4.810204 0.000000 0.000000
													CHANNELS 3 Xrotation Yrotation Zrotation
													JOINT LeftHandPinky4
													{
														OFFSET 3.647202 0.000000 0.000000
														CHANNELS 3 Xrotation Yrotation Zrotation
														End Site
														{
															OFFSET 0.000000 0.000000 0.000000
														}
													}
												}
											}
										}
									}
								}
							}
						}
					}
					JOINT RightShoulder
					{
						OFFSET -7.570500 7.247704 -3.868750
						CHANNELS 3 Xrotation Yrotation Zrotation
						JOINT RightShoulder_split
						{
							OFFSET -7.570500 7.247704 -3.868750
							CHANNELS 3 Xrotation Yrotation Zrotation
							JOINT RightArm
							{
								OFFSET -9.308998 -2.777710 0.208500
								CHANNELS 3 Xrotation Yrotation Zrotation
								JOINT RightForeArm
								{
									OFFSET -29.972300 0.000000 0.000000
									CHANNELS 3 Xrotation Yrotation Zrotation
									JOINT RightHand
									{
										OFFSET -26.026505 0.000000 0.000000
										CHANNELS 3 Xrotation Yrotation Zrotation
										JOINT RightHandThumb1
										{
											OFFSET -12.240601 -7.148026 9.207092
											CHANNELS 3 Xrotation Yrotation Zrotation
											JOINT RightHandThumb2
											{
												OFFSET -4.138618 -2.389435 2.389433
												CHANNELS 3 Xrotation Yrotation Zrotation
												JOINT RightHandThumb3
												{
													OFFSET -2.726974 -1.574417 1.574421
													CHANNELS 3 Xrotation Yrotation Zrotation
													JOINT RightHandThumb4
													{
														OFFSET -3.941010 -2.275345 2.275343
														CHANNELS 3 Xrotation Yrotation Zrotation
														End Site
														{
															OFFSET 0.000000 0.000000 0.000000
														}
													}
												}
											}
										}
										JOINT RightHandIndex1
										{
											OFFSET -24.424698 -1.985657 5.953444
											CHANNELS 3 Xrotation Yrotation Zrotation
											JOINT RightHandIndex2
											{
												OFFSET -6.426697 0.000000 0.000000
												CHANNELS 3 Xrotation Yrotation Zrotation
												JOINT RightHandIndex3
												{
													OFFSET -5.337898 0.000000 0.000000
													CHANNELS 3 Xrotation Yrotation Zrotation
													JOINT RightHandIndex4
													{
														OFFSET -4.409401 0.000000 0.000000
														CHANNELS 3 Xrotation Yrotation Zrotation
														End Site
														{
															OFFSET 0.000000 0.000000 0.000000
														}
													}
												}
											}
										}
										JOINT RightHandMiddle1
										{
											OFFSET -23.810097 0.000000 0.000000
											CHANNELS 3 Xrotation Yrotation Zrotation
											JOINT RightHandMiddle2
											{
												OFFSET -7.176498 0.000000 0.000000
												CHANNELS 3 Xrotation Yrotation Zrotation
												JOINT RightHandMiddle3
												{
													OFFSET -6.774902 0.000000 0.000000
													CHANNELS 3 Xrotation Yrotation Zrotation
													JOINT RightHandMiddle4
													{
														OFFSET -5.403328 0.000000 0.000000
														CHANNELS 3 Xrotation Yrotation Zrotation
														End Site
														{
															OFFSET 0.000000 0.000000 0.000000
														}
													}
												}
											}
										}
										JOINT RightHandRing1
										{
											OFFSET -22.908302 -0.839325 -6.020576
											CHANNELS 3 Xrotation Yrotation Zrotation
											JOINT RightHandRing2
											{
												OFFSET -6.337502 0.000000 0.000000
												CHANNELS 3 Xrotation Yrotation Zrotation
												JOINT RightHandRing3
												{
													OFFSET -5.779297 0.000000 0.000000
													CHANNELS 3 Xrotation Yrotation Zrotation
													JOINT RightHandRing4
													{
														OFFSET -4.965698 0.000000 0.000000
														CHANNELS 3 Xrotation Yrotation Zrotation
														End Site
														{
															OFFSET 0.000000 0.000000 0.000000
														}
													}
												}
											}
										}
										JOINT RightHandPinky1
										{
											OFFSET -20.037003 -1.530334 -10.950259
											CHANNELS 3 Xrotation Yrotation Zrotation
											JOINT RightHandPinky2
											{
												OFFSET -5.254700 0.000000 0.000000
												CHANNELS 3 Xrotation Yrotation Zrotation
												JOINT RightHandPinky3
												{
													OFFSET -4.810204 0.000000 0.000000
													CHANNELS 3 Xrotation Yrotation Zrotation
													JOINT RightHandPinky4
													{
														OFFSET -3.647202 0.000000 0.000000
														CHANNELS 3 Xrotation Yrotation Zrotation
														End Site
														{
															OFFSET 0.000000 0.000000 0.000000
														}
													}
												}
											}
										}
									}
								}
							}
						}
					}
				}
			}
		}
	}
	JOINT LeftUpLeg
	{
		OFFSET 15.427100 -6.655098 0.678600
		CHANNELS 3 Xrotation Yrotation Zrotation
		JOINT LeftLeg
		{
			OFFSET 4.081073 -39.591068 13.024000
			CHANNELS 3 Xrotation Yrotation Zrotation
			JOINT LeftFoot
			{
				OFFSET -4.081074 -37.707932 -15.979700
				CHANNELS 3 Xrotation Yrotation Zrotation
				JOINT LeftToeBase
				{
					OFFSET 5.346399 -15.068900 20.645000
					CHANNELS 3 Xrotation Yrotation Zrotation
					JOINT LeftToe_End
					{
						OFFSET 2.754700 0.931300 11.300900
						CHANNELS 3 Xrotation Yrotation Zrotation
						End Site
						{
							OFFSET 0.000000 0.000000 0.000000
						}
					}
				}
			}
		}
	}
	JOINT RightUpLeg
	{
		OFFSET -15.569500 -6.655098 0.678600
		CHANNELS 3 Xrotation Yrotation Zrotation
		JOINT RightLeg
		{
			OFFSET -4.081825 -39.591045 13.023800
			CHANNELS 3 Xrotation Yrotation Zrotation
			JOINT RightFoot
			{
				OFFSET 4.081824 -37.707954 -15.979600
				CHANNELS 3 Xrotation Yrotation Zrotation
				JOINT RightToeBase
				{
					OFFSET -5.346400 -15.068900 20.645000
					CHANNELS 3 Xrotation Yrotation Zrotation
					JOINT RightToe_End
					{
						OFFSET -2.754700 0.931300 11.300900
						CHANNELS 3 Xrotation Yrotation Zrotation
						End Site
						{
							OFFSET 0.000000 0.000000 0.000000
						}
					}
				}
			}
		}
	}
}
MOTION
Frames: 5
Frame Time: 0.016667
1.862852 77.672379 27.345045 5.299135 -410.479261 5.881896 11.891501 -6.983438 6.676367 7.182700 -7.370583 1.871818 0.000000 0.000000 0.000000 -3.934138 -6.959424 2.025283 7.764871 41.421535 -11.305572 0.258113 26.018796 -6.977978 -0.000001 0.000000 -0.000001 1.383207 -5.637207 -0.733874 0.000000 0.000000 0.000000 -2.266013 -2.878838 -36.679475 -0.000819 -20.848213 -3.050619 -46.535534 -14.688329 25.139524 20.995593 -10.306047 6.187772 3.717717 17.385550 -9.270248 11.901757 19.029126 -1.676420 -0.000001 -0.000002 0.000002 12.155536 -5.009005 -19.357545 -1.752632 1.408426 -24.867493 -1.756620 1.242297 -27.840669 0.000000 -0.000001 0.000000 2.495169 2.549567 -39.192001 -1.398711 0.248719 -47.542942 -1.203678 -0.020768 -51.118003 0.000001 -0.000001 -0.000001 0.949983 6.178077 -48.371690 -2.316292 1.003929 -53.554608 -2.280346 0.916076 -56.721641 0.000003 -0.000004 0.000001 -1.286405 4.834420 -53.465283 -2.521698 1.318785 -48.312196 -3.127530 2.229916 -66.235807 -0.000000 0.000002 -0.000000 9.987214 -5.269202 3.687167 0.000000 0.000000 0.000000 4.872918 -1.636422 76.375489 -10.545821 13.289824 4.346990 -27.527551 -8.499054 -15.910810 55.149516 18.649606 -29.698294 -0.442535 -14.180554 7.313156 21.666981 -29.244493 9.142369 0.000000 0.000001 0.000002 5.673384 7.585013 36.844158 1.050478 3.824528 68.900237 0.499567 3.026028 62.196454 -0.000000 0.000000 -0.000005 -0.125709 1.886078 45.000770 -1.168992 3.204682 68.417663 -0.936418 1.813611 41.107548 0.000000 0.000000 0.000000 -5.311995 1.216633 58.508780 -0.745222 1.667577 48.011285 -0.816466 1.840651 53.666538 0.000001 -0.000001 -0.000000 -7.756837 -9.376444 47.264018 -0.526027 1.541564 45.600535 -0.508187 0.803448 24.986610 0.000000 -0.000001 -0.000001 4.845078 12.990978 -9.139797 41.757847 -8.315696 -8.178156 -35.539277 -11.258872 18.919033 -9.973860 -2.484206 0.991520 -0.000000 -0.000001 -0.000000 -60.746200 -2.130251 4.102411 19.350006 2.894602 0.666709 1.660140 7.963035 13.232192 2.549285 -5.172617 8.236458 0.000003 0.000001 0.000000 
2.953046 78.374832 26.281879 5.422764 -411.794837 5.611013 11.730502 -6.731463 6.546310 6.897505 -6.951604 1.878609 0.000000 0.000000 0.000000 -4.209822 -6.549578 2.113403 6.754099 41.480439 -10.680607 1.712228 25.842639 -7.475038 -0.000000 0.000000 0.000000 1.270531 -5.316223 -0.766511 0.000000 0.000000 0.000000 -4.829682 -2.597530 -36.315091 -0.000762 -23.380837 -2.655190 -43.580005 -16.603174 22.958397 20.993662 -10.305568 6.186543 3.715751 17.385342 -9.269069 11.901589 19.029245 -1.677061 -0.000000 0.000002 -0.000001 12.155545 -5.009012 -19.357509 -1.752643 1.408485 -24.867520 -1.757473 1.242290 -27.840631 -0.000000 -0.000003 -0.000000 2.495531 2.548925 -39.191933 -1.398870 0.248791 -47.542946 -1.202718 -0.020776 -51.118031 -0.000000 -0.000001 0.000000 0.950618 6.178134 -48.371731 -2.316292 1.003876 -53.554595 -2.280343 0.916073 -56.721651 -0.000001 0.000001 -0.000000 -1.286433 4.834447 -53.465246 -2.521162 1.318773 -48.312284 -3.127830 2.229772 -66.235773 -0.000002 -0.000000 0.000000 10.009435 -5.246998 3.894586 0.000000 0.000000 0.000000 5.281019 -0.456748 74.450346 -9.017184 16.459786 6.074798 -27.199908 -7.979315 -16.432209 55.149512 18.649599 -29.698287 -0.442534 -14.180560 7.313154 21.666982 -29.244493 9.142364 0.000000 -0.000001 0.000006 5.673384 7.585012 36.844151 1.050472 3.824529 68.900237 0.499566 3.026025 62.196454 -0.000000 -0.000001 -0.000003 -0.125709 1.886077 45.000770 -1.168998 3.204679 68.417663 -0.936414 1.813611 41.107555 -0.000003 0.000002 0.000002 -5.311994 1.216633 58.508773 -0.745221 1.667577 48.011281 -0.816468 1.840653 53.666538 0.000001 0.000003 0.000001 -7.756832 -9.376436 47.264014 -0.526029 1.541564 45.600532 -0.508188 0.803444 24.986610 -0.000002 -0.000001 -0.000000 5.472275 12.874066 -9.065592 38.742486 -8.157938 -8.267994 -38.080863 -10.445431 17.311797 -3.931859 -5.770348 1.726652 0.000000 0.000004 -0.000000 -59.946904 -3.121442 3.474573 19.042887 3.760495 1.728804 4.122867 8.701904 13.778742 1.914876 -4.655937 7.674909 0.000001 -0.000001 -0.000000 
3.862708 78.963387 25.343288 5.673907 -412.780707 6.039447 11.614089 -6.552034 6.328509 6.702436 -6.646076 1.735211 0.000000 0.000000 0.000000 -4.396959 -6.222363 2.032141 5.775674 41.621134 -10.698913 2.687457 25.531739 -7.780070 0.000000 0.000001 0.000000 1.193835 -5.438141 -0.666393 0.000000 0.000000 0.000000 -7.183529 -1.982264 -36.296172 -0.000745 -25.615142 -2.431718 -40.197207 -19.135390 21.319322 20.991784 -10.305285 6.185329 3.713719 17.384942 -9.267929 11.901408 19.029375 -1.677502 -0.000001 0.000001 -0.000002 12.155562 -5.009004 -19.357567 -1.752636 1.408491 -24.867489 -1.758024 1.242298 -27.840594 -0.000000 -0.000000 -0.000000 2.495726 2.548419 -39.191878 -1.399381 0.248732 -47.542928 -1.202152 -0.020764 -51.118061 0.000000 -0.000001 -0.000002 0.951325 6.178119 -48.371813 -2.316289 1.003905 -53.554642 -2.280360 0.916070 -56.721624 -0.000002 -0.000000 0.000000 -1.286401 4.834451 -53.465280 -2.520855 1.318757 -48.312233 -3.128303 2.229624 -66.235807 -0.000001 -0.000000 0.000000 10.002478 -5.247371 3.791890 0.000000 0.000000 0.000000 5.106702 1.244171 72.693970 -7.342024 18.797415 7.476812 -27.297754 -7.313770 -16.910818 55.149526 18.649601 -29.698287 -0.442537 -14.180555 7.313155 21.666982 -29.244493 9.142368 -0.000000 0.000002 0.000002 5.673383 7.585015 36.844158 1.050475 3.824529 68.900237 0.499569 3.026026 62.196461 0.000000 -0.000000 -0.000001 -0.125709 1.886077 45.000770 -1.168995 3.204681 68.417663 -0.936412 1.813610 41.107552 0.000000 -0.000003 0.000004 -5.311996 1.216635 58.508787 -0.745218 1.667579 48.011281 -0.816466 1.840652 53.666538 0.000003 0.000000 -0.000002 -7.756835 -9.376438 47.264014 -0.526027 1.541565 45.600532 -0.508187 0.803440 24.986610 -0.000001 -0.000001 -0.000000 5.854891 12.544072 -9.551492 36.359187 -7.515499 -8.241693 -39.846716 -9.519002 15.729451 0.865207 -8.879407 2.310172 0.000000 -0.000001 0.000000 -59.788293 -2.764991 3.164451 20.208141 4.126552 1.303219 6.721534 8.987308 13.611510 3.273257 -3.936316 7.364745 0.000002 -0.000003 0.000000 
4.635443 79.435417 24.465157 5.938561 -413.419493 6.665773 11.556872 -6.410536 6.077002 6.628104 -6.390919 1.563486 0.000000 0.000000 0.000000 -4.464399 -5.939061 1.913257 4.365878 41.687452 -10.666471 3.702048 25.152709 -8.050840 -0.000001 -0.000000 -0.000001 1.126232 -5.641835 -0.722995 0.000000 0.000000 0.000000 -9.346831 -1.665549 -36.045319 -0.000761 -28.424336 -2.537049 -36.837293 -19.811003 22.805337 20.990320 -10.305138 6.184459 3.711902 17.384483 -9.266745 11.901372 19.029435 -1.677661 0.000001 -0.000001 0.000001 12.155581 -5.008967 -19.357507 -1.752632 1.408425 -24.867515 -1.758202 1.242312 -27.840594 -0.000001 0.000002 -0.000000 2.495621 2.548056 -39.191861 -1.400269 0.248784 -47.542911 -1.202027 -0.020794 -51.118092 0.000002 0.000001 -0.000002 0.951996 6.178112 -48.371953 -2.316358 1.003917 -53.554622 -2.280360 0.916056 -56.721634 -0.000001 -0.000000 0.000000 -1.286413 4.834426 -53.465283 -2.520805 1.318778 -48.312288 -3.129020 2.229266 -66.235746 0.000001 -0.000000 -0.000000 10.045356 -5.469087 3.772899 0.000000 0.000000 0.000000 4.495822 3.336462 70.727633 -5.588871 20.793983 8.779304 -27.367694 -6.389268 -16.786233 55.149512 18.649603 -29.698291 -0.442539 -14.180557 7.313153 21.666982 -29.244486 9.142372 -0.000002 -0.000003 0.000002 5.673384 7.585011 36.844158 1.050475 3.824529 68.900237 0.499566 3.026027 62.196454 -0.000000 0.000000 0.000001 -0.125708 1.886077 45.000766 -1.168999 3.204679 68.417663 -0.936414 1.813610 41.107555 -0.000001 0.000003 0.000001 -5.311994 1.216633 58.508787 -0.745221 1.667576 48.011285 -0.816468 1.840652 53.666538 -0.000000 0.000001 0.000002 -7.756832 -9.376441 47.264014 -0.526027 1.541562 45.600539 -0.508190 0.803443 24.986610 -0.000002 -0.000001 0.000001 5.782856 11.736072 -10.137757 34.619688 -7.097676 -7.889733 -41.284788 -8.397841 13.614825 4.883038 -11.145198 3.365286 0.000000 -0.000000 0.000000 -59.943939 -1.601013 2.896258 22.038995 4.383151 0.025358 9.629991 9.065652 14.793715 3.856332 -3.668723 7.269366 -0.000001 0.000001 0.000002 
5.390592 80.136658 23.506086 5.319818 -413.789252 6.091328 11.622256 -6.257484 5.919115 6.794961 -6.175029 1.573897 0.000000 0.000000 0.000000 -4.293380 -5.729216 1.965299 3.628500 41.912544 -10.957748 4.357235 24.829233 -7.798363 -0.000001 0.000000 0.000000 1.050628 -5.732716 -0.645911 0.000000 0.000000 0.000000 -10.981756 -1.677344 -36.071325 -0.000894 -31.013782 -2.911608 -33.739963 -20.679962 24.857095 20.989648 -10.305154 6.184104 3.710564 17.384158 -9.265638 11.901461 19.029336 -1.677391 0.000000 -0.000001 0.000002 12.155544 -5.008991 -19.357528 -1.752623 1.408445 -24.867532 -1.757871 1.242326 -27.840599 0.000002 0.000002 0.000000 2.495144 2.547934 -39.191841 -1.401611 0.248759 -47.542816 -1.202664 -0.020774 -51.118037 -0.000004 -0.000000 -0.000002 0.952466 6.178099 -48.371994 -2.316346 1.003900 -53.554653 -2.280362 0.916114 -56.721610 0.000003 -0.000000 -0.000000 -1.286414 4.834442 -53.465252 -2.521109 1.318809 -48.312250 -3.129797 2.228888 -66.235841 -0.000004 -0.000000 -0.000000 10.061757 -5.462833 3.895502 0.000000 0.000000 0.000000 4.113600 5.243606 68.416926 -3.708418 23.102789 10.041073 -28.527463 -5.824110 -17.377290 55.149519 18.649599 -29.698294 -0.442535 -14.180557 7.313160 21.666981 -29.244490 9.142370 -0.000002 0.000000 -0.000002 5.673385 7.585012 36.844151 1.050474 3.824527 68.900237 0.499567 3.026027 62.196454 0.000000 0.000000 0.000001 -0.125709 1.886078 45.000770 -1.168997 3.204681 68.417663 -0.936414 1.813613 41.107548 -0.000000 0.000002 0.000001 -5.311995 1.216633 58.508773 -0.745223 1.667577 48.011285 -0.816468 1.840652 53.666538 0.000001 0.000001 -0.000002 -7.756835 -9.376439 47.264014 -0.526028 1.541563 45.600539 -0.508188 0.803444 24.986610 -0.000001 -0.000000 -0.000001 5.618627 11.262830 -10.377117 33.888878 -6.305885 -6.789308 -42.290950 -8.185171 12.311362 8.001475 -12.524561 4.652349 0.000000 -0.000001 -0.000000 -58.681632 -0.373562 2.337013 23.144509 4.363757 -0.847763 12.086068 8.691344 15.214245 6.053377 -2.634300 6.805205 0.000001 -0.000003 -0.000001 
